<?xml version="1.0" encoding="UTF-8" standalone="no"?>
<svg
   xmlns:dc="http://purl.org/dc/elements/1.1/"
   xmlns:cc="http://creativecommons.org/ns#"
   xmlns:rdf="http://www.w3.org/1999/02/22-rdf-syntax-ns#"
   xmlns:svg="http://www.w3.org/2000/svg"
   xmlns="http://www.w3.org/2000/svg"
   xmlns:sodipodi="http://sodipodi.sourceforge.net/DTD/sodipodi-0.dtd"
   xmlns:inkscape="http://www.inkscape.org/namespaces/inkscape"
   width="170"
   height="106"
   version="1.1"
   id="svg10"
   sodipodi:docname="base.svg"
   inkscape:version="0.92.4 (5da689c313, 2019-01-14)">
  <metadata
     id="metadata16">
    <rdf:RDF>
      <cc:Work
         rdf:about="">
        <dc:format>image/svg+xml</dc:format>
        <dc:type
           rdf:resource="http://purl.org/dc/dcmitype/StillImage" />
        <dc:title></dc:title>
      </cc:Work>
    </rdf:RDF>
  </metadata>
  <defs
     id="defs14" />
  <sodipodi:namedview
     pagecolor="#ffffff"
     bordercolor="#666666"
     borderopacity="1"
     objecttolerance="10"
     gridtolerance="10"
     guidetolerance="10"
     inkscape:pageopacity="0"
     inkscape:pageshadow="2"
     inkscape:window-width="1790"
     inkscape:window-height="1420"
     id="namedview12"
     showgrid="false"
     inkscape:zoom="3.7411765"
     inkscape:cx="88.36534"
     inkscape:cy="59.399778"
     inkscape:window-x="2560"
     inkscape:window-y="18"
     inkscape:window-maximized="0"
     inkscape:current-layer="svg10" />
  <rect
     x="1.5"
     y="1.5"
     height="103"
     width="167"
     fill="#fff"
     stroke="#000"
     stroke-width="3"
     id="rect2" />
  <ellipse
     cx="85"
     cy="52.5"
     rx="60"
     ry="23.25"
     fill="none"
     stroke="#000"
     stroke-width="3"
     id="ellipse4" />
  <path
     d="M 2.9770963,3.0375815 167.0229,102.96242 M 166.97708,2.962429 3.0229209,103.03757"
     id="path6"
     inkscape:connector-curvature="0"
     style="fill:none;stroke:#000000;stroke-width:3" />
  <path
     fill="none"
     stroke="#000"
     stroke-width="3"
     d="M167.5,98.796c-8,0-8-19-19-19s-11,19-21,19c-11,0-10-19-21-19 s-10,19-21,19s-10-19-21-19s-9,19-21,19s-10-19-21-19s-10,19-21,19"
     id="path8" />
  <path
     inkscape:connector-curvature="0"
     style="fill:none;stroke:#000000;stroke-width:1.88078189;stroke-linecap:round;stroke-linejoin:miter;stroke-miterlimit:4;stroke-dasharray:none;stroke-opacity:1"
     id="path2995"
     d="m 60.150792,-12.278302 a 7.7608579,7.3735395 0 1 1 -15.521714,0 7.7608579,7.3735395 0 1 1 15.521714,0 z" />
  <g
     id="g93">
    <path
       sodipodi:nodetypes="cc"
       style="fill:none;stroke:#000000;stroke-width:3"
       inkscape:connector-curvature="0"
       id="path6-7"
       d="M -3.5786164,-3.7547169 160.37555,-103.82985" />
  </g>
</svg>
