<?xml version="1.0" encoding="UTF-8" standalone="no"?>
<svg
   xmlns:dc="http://purl.org/dc/elements/1.1/"
   xmlns:cc="http://creativecommons.org/ns#"
   xmlns:rdf="http://www.w3.org/1999/02/22-rdf-syntax-ns#"
   xmlns:svg="http://www.w3.org/2000/svg"
   xmlns="http://www.w3.org/2000/svg"
   xmlns:sodipodi="http://sodipodi.sourceforge.net/DTD/sodipodi-0.dtd"
   xmlns:inkscape="http://www.inkscape.org/namespaces/inkscape"
   width="170"
   height="106"
   version="1.1"
   id="svg10"
   sodipodi:docname="amphibious_mechanized.svg"
   inkscape:version="0.92.4 (5da689c313, 2019-01-14)">
  <metadata
     id="metadata16">
    <rdf:RDF>
      <cc:Work
         rdf:about="">
        <dc:format>image/svg+xml</dc:format>
        <dc:type
           rdf:resource="http://purl.org/dc/dcmitype/StillImage" />
        <dc:title />
      </cc:Work>
    </rdf:RDF>
  </metadata>
  <defs
     id="defs14" />
  <sodipodi:namedview
     pagecolor="#ffffff"
     bordercolor="#666666"
     borderopacity="1"
     objecttolerance="10"
     gridtolerance="10"
     guidetolerance="10"
     inkscape:pageopacity="0"
     inkscape:pageshadow="2"
     inkscape:window-width="1534"
     inkscape:window-height="1420"
     id="namedview12"
     showgrid="false"
     inkscape:zoom="10.581645"
     inkscape:cx="72.132414"
     inkscape:cy="7.4569843"
     inkscape:window-x="2560"
     inkscape:window-y="18"
     inkscape:window-maximized="0"
     inkscape:current-layer="svg10" />
  <rect
     x="1.5"
     y="1.5"
     height="103"
     width="167"
     fill="#fff"
     stroke="#000"
     stroke-width="3"
     id="rect2" />
  <ellipse
     cx="85"
     cy="52.5"
     rx="60"
     ry="23.25"
     fill="none"
     stroke="#000"
     stroke-width="3"
     id="ellipse4" />
  <path
     d="M 2.9770963,3.0375815 167.0229,102.96242 M 166.97708,2.962429 3.0229209,103.03757"
     id="path6"
     inkscape:connector-curvature="0"
     style="fill:none;stroke:#000000;stroke-width:3" />
  <path
     inkscape:connector-curvature="0"
     style="fill:none;stroke:#000000;stroke-width:3"
     d="m 168,99.432616 c -8,0 -8,-18.999999 -19,-18.999999 -11,0 -11,18.999999 -21,18.999999 -11,0 -10,-18.999999 -21,-18.999999 -11.000005,0 -10.000005,18.999999 -21.000005,18.999999 -10.999996,0 -10,-18.999999 -20.999996,-18.999999 -11,0 -9,18.999999 -21,18.999999 -12,0 -10,-18.999999 -21,-18.999999 -11,0 -10,18.999999 -20.9999994,18.999999"
     id="path8" />
</svg>
