<?xml version="1.0" encoding="UTF-8" standalone="no"?>
<svg
   xmlns:dc="http://purl.org/dc/elements/1.1/"
   xmlns:cc="http://creativecommons.org/ns#"
   xmlns:rdf="http://www.w3.org/1999/02/22-rdf-syntax-ns#"
   xmlns:svg="http://www.w3.org/2000/svg"
   xmlns="http://www.w3.org/2000/svg"
   xmlns:sodipodi="http://sodipodi.sourceforge.net/DTD/sodipodi-0.dtd"
   xmlns:inkscape="http://www.inkscape.org/namespaces/inkscape"
   width="170"
   height="106"
   version="1.1"
   id="svg10"
   sodipodi:docname="recon.svg"
   inkscape:version="0.92.4 (5da689c313, 2019-01-14)">
  <metadata
     id="metadata16">
    <rdf:RDF>
      <cc:Work
         rdf:about="">
        <dc:format>image/svg+xml</dc:format>
        <dc:type
           rdf:resource="http://purl.org/dc/dcmitype/StillImage" />
        <dc:title />
      </cc:Work>
    </rdf:RDF>
  </metadata>
  <defs
     id="defs14" />
  <sodipodi:namedview
     pagecolor="#ffffff"
     bordercolor="#666666"
     borderopacity="1"
     objecttolerance="10"
     gridtolerance="10"
     guidetolerance="10"
     inkscape:pageopacity="0"
     inkscape:pageshadow="2"
     inkscape:window-width="1790"
     inkscape:window-height="1420"
     id="namedview12"
     showgrid="false"
     inkscape:zoom="2.6454113"
     inkscape:cx="117.64833"
     inkscape:cy="54.404977"
     inkscape:window-x="2560"
     inkscape:window-y="18"
     inkscape:window-maximized="0"
     inkscape:current-layer="svg10" />
  <rect
     x="1.5"
     y="1.5"
     height="103"
     width="167"
     fill="#fff"
     stroke="#000"
     stroke-width="3"
     id="rect2" />
  <path
     inkscape:connector-curvature="0"
     d="m 106.55273,24.016183 c 0,-1.231812 -0.96449,-2.229525 -2.15528,-2.229525 h -8.621085 c -1.190785,0 -2.155278,0.997713 -2.155278,2.229525 v 6.688575 H 106.55273 Z M 59.12462,39.621459 C 58.786508,52.699013 50.981737,55.538872 50.515655,73.6231 v 6.131192 c 0,2.462232 1.930312,4.459049 4.310547,4.459049 h 12.931631 c 2.380226,0 4.310547,-1.996816 4.310547,-4.459048 V 57.459049 h 4.310538 V 35.163809 H 63.425734 c -2.374842,0 -4.236457,2.002386 -4.301114,4.45765 z m 51.75077,0 c -0.0647,-2.455264 -1.92628,-4.45765 -4.30111,-4.45765 H 93.621087 V 57.45905 h 4.310547 v 22.295243 c 0,2.462232 1.930312,4.459048 4.310546,4.459048 h 12.93163 c 2.38022,0 4.31053,-1.996816 4.31053,-4.459048 V 73.6231 c -0.46607,-18.084228 -8.27085,-20.924087 -8.60895,-34.001641 z m -36.65175,-17.8348 h -8.621085 c -1.190784,0 -2.155269,0.997712 -2.155269,2.229524 v 6.688575 h 12.931632 v -6.688575 c 0,-1.231812 -0.964485,-2.229524 -2.155278,-2.229524 z m 6.465824,35.67239 h 8.621085 v -22.29524 h -8.621085 z"
     id="path2"
     style="stroke-width:0.13700524" />
</svg>
